{"title":"Rise Of The Apes 2011 TS XViD IMAGiNE Carter67","uid":6587545,"size":1485052412,"categoryP":"video","categoryS":"movies","magnet":"?xt=urn:btih:df4cad6776ab30361022c46dff04dd7d9124be15&amp;dn=Rise+Of+The+Apes+2011+TS+XViD+IMAGiNE+Carter67&amp;tr=udp%3A%2F%2Ftracker.openbittorrent.com%3A80&amp;tr=udp%3A%2F%2Fopen.demonii.com%3A1337&amp;tr=udp%3A%2F%2Ftracker.coppersurfer.tk%3A6969&amp;tr=udp%3A%2F%2Fexodus.desync.com%3A6969","seeders":0,"leechers":1,"uploader":"carter67","files":-1,"time":1312672605,"description":"   Another Fine Release Brought to you from - IMAGiNE                  \n\n                                             \n\n\n\n********************************************************************************************************************                                \n\n                           Rise Of The Apes 2011 TS READNFO XViD - IMAGiNE\n\n********************************************************************************************************************\n\n\n\n\n\n\n\n\n\nRipper ...........: IMAGiNE                                        IMDB Rating.......:7.8/10                            \n\nVideo Codec.......: XVID                                         Release Date......:06/08/11\n\nAudio Codec.......:MP3                                           Theatre Date......:05/08/11\n\nAudio Bitrate.....:128                                              Runtime.......:1h 37mn\n\nSubtitles.........:ENGLISH HARDCODED WHEN NEEDED                  Language..........:ENGLISH\n\nResolution...... 720 x 320                                      IMDb URL.......... http://www.imdb.com/title/tt1318514/\n\n\n\n\n\nDETAILS:\n\n\n\nVideo\n\nID                               : 0\n\nFormat                           : MPEG-4 Visual\n\nFormat profile                   : Advanced Simple@L5\n\nFormat settings, BVOP            : 2\n\nFormat settings, QPel            : No\n\nFormat settings, GMC             : No warppoints\n\nFormat settings, Matrix          : Default (MPEG)\n\nMuxing mode                      : Packed bitstream\n\nCodec ID                         : XVID\n\nCodec ID/Hint                    : XviD\n\nDuration                         : 1h 37mn\n\nBit rate                         : 1 865 Kbps\n\nWidth                            : 720 pixels\n\nHeight                           : 320 pixels\n\nDisplay aspect ratio             : 2.25:1\n\nFrame rate                       : 25.000 fps\n\nColor space                      : YUV\n\nChroma subsampling               : 4:2:0\n\nBit depth                        : 8 bits\n\nScan type                        : Progressive\n\nCompression mode                 : Lossy\n\nBits/(Pixel*Frame)               : 0.324\n\nStream size                      : 1.28 GiB (93%)\n\nWriting library                  : XviD 64\n\n\n\nAudio\n\nID                               : 1\n\nFormat                           : MPEG Audio\n\nFormat version                   : Version 1\n\nFormat profile                   : Layer 3\n\nMode                             : Joint stereo\n\nMode extension                   : MS Stereo\n\nCodec ID                         : 55\n\nCodec ID/Hint                    : MP3\n\nDuration                         : 1h 37mn\n\nBit rate mode                    : Constant\n\nBit rate                         : 128 Kbps\n\nChannel(s)                       : 2 channels\n\nSampling rate                    : 44.1 KHz\n\nCompression mode                 : Lossy\n\nStream size                      : 89.7 MiB (6%)\n\nAlignment                        : Split accross interleaves\n\nInterleave, duration             : 40 ms (1.00 video frame)\n\n\n\n\n\nSOURCES:\n\n\n\nVIDEO: .............. Vosstanie.obeziyan.2011.CAMRip.PROPER Thanks\n\nAUDIO: .............. Thanks Matey ","torrent":{"xt":"urn:btih:df4cad6776ab30361022c46dff04dd7d9124be15","amp;dn":"Rise+Of+The+Apes+2011+TS+XViD+IMAGiNE+Carter67","amp;tr":["udp%3A%2F%2Ftracker.openbittorrent.com%3A80","udp%3A%2F%2Fopen.demonii.com%3A1337","udp%3A%2F%2Ftracker.coppersurfer.tk%3A6969","udp%3A%2F%2Fexodus.desync.com%3A6969"],"infoHash":"df4cad6776ab30361022c46dff04dd7d9124be15","infoHashBuffer":{"type":"Buffer","data":[223,76,173,103,118,171,48,54,16,34,196,109,255,4,221,125,145,36,190,21]},"announce":[],"urlList":[]}}